<?xml version="1.0" encoding="UTF-8"?>
<svg id="_图层_1" data-name="图层 1" xmlns="http://www.w3.org/2000/svg" viewBox="0 0 570 570">
  <defs>
    <style>
      .cls-1 {
        fill: #fff;
      }

      .cls-2 {
        fill: #3789e6;
      }
    </style>
  </defs>
  <path class="cls-2" d="M171.29,444.74h227.42c25.43,0,46.04-20.61,46.04-46.03v-227.42c0-25.42-20.61-46.03-46.04-46.03h-227.42c-25.42,0-46.03,20.61-46.03,46.03v227.42c0,25.42,20.61,46.03,46.03,46.03"/>
  <path class="cls-1" d="M381.5,191.82h-40.1c-3.32,0-6.01,2.69-6.01,6.02s2.69,6.02,6.01,6.02h32.18l-19.12,68.72c-.89,3.2.98,6.52,4.18,7.41.54.15,1.08.22,1.62.22,2.63,0,5.05-1.74,5.79-4.4l21.24-76.35c.5-1.81.13-3.76-1-5.25s-2.91-2.38-4.79-2.38"/>
  <path class="cls-1" d="M335.03,268.25h-34.39l21.52-21.81c7.76-6.98,12.2-16.95,12.2-27.38,0-14.96-12.17-27.14-27.14-27.14s-27.14,12.17-27.14,27.14v.9c0,3.32,2.69,6.02,6.01,6.02s6.02-2.69,6.02-6.02v-.9c0-8.33,6.78-15.11,15.11-15.11s15.1,6.78,15.1,15.11c0,7.07-3.03,13.83-8.32,18.53-.1.09-.19.18-.28.27l-31.76,32.19c-1.7,1.73-2.2,4.31-1.27,6.55s3.12,3.7,5.55,3.7h48.78c3.32,0,6.02-2.69,6.02-6.02s-2.69-6.02-6.02-6.02"/>
  <path class="cls-1" d="M192.62,193.59c-2.35-2.35-6.16-2.35-8.51,0-2.35,2.35-2.35,6.16,0,8.51l33.93,33.92-33.93,33.93c-2.35,2.35-2.35,6.16,0,8.51,1.18,1.17,2.72,1.76,4.26,1.76s3.08-.59,4.26-1.76l38.18-38.18c1.13-1.13,1.76-2.66,1.76-4.26s-.63-3.13-1.76-4.26l-38.18-38.18Z"/>
  <path class="cls-1" d="M263.15,193.59l-22.92,22.92c-2.35,2.35-2.35,6.16,0,8.51,1.17,1.17,2.71,1.76,4.25,1.76s3.08-.59,4.26-1.76l22.92-22.92c2.35-2.35,2.35-6.16,0-8.51-2.35-2.35-6.16-2.35-8.51,0"/>
  <path class="cls-1" d="M248.41,246.71c-2.35-2.35-6.16-2.35-8.51,0-2.35,2.35-2.35,6.16,0,8.51l23.24,23.24c1.17,1.17,2.71,1.76,4.26,1.76s3.08-.59,4.25-1.76c2.35-2.35,2.35-6.16,0-8.51l-23.24-23.24Z"/>
  <path class="cls-1" d="M268.51,378.18c-3.31,0-5.99-2.68-5.99-5.99v-58.72l-29.59,38.71c-1.13,1.48-2.9,2.35-4.76,2.35s-3.63-.87-4.76-2.35l-29.59-38.71v58.72c0,3.31-2.68,5.99-5.99,5.99s-5.99-2.68-5.99-5.99v-76.43c0-2.57,1.64-4.85,4.07-5.68,2.43-.82,5.12,0,6.68,2.04l35.58,46.55,35.58-46.55c1.56-2.04,4.25-2.86,6.68-2.04,2.43.83,4.07,3.11,4.07,5.68v76.43c0,3.31-2.68,5.99-5.99,5.99"/>
  <path class="cls-1" d="M292.15,378.18c-3.31,0-5.99-2.68-5.99-5.99v-55.25c0-3.31,2.68-5.99,5.99-5.99s5.99,2.68,5.99,5.99v55.25c0,3.31-2.68,5.99-5.99,5.99"/>
  <path class="cls-1" d="M298.98,296.33c0-3.77-3.06-6.83-6.83-6.83s-6.83,3.06-6.83,6.83,3.06,6.83,6.83,6.83,6.83-3.06,6.83-6.83"/>
  <path class="cls-1" d="M388.17,296.33c0-3.77-3.06-6.83-6.83-6.83s-6.83,3.06-6.83,6.83,3.06,6.83,6.83,6.83,6.83-3.06,6.83-6.83"/>
  <path class="cls-1" d="M381.35,378.18c-3.31,0-5.99-2.68-5.99-5.99v-55.25c0-3.31,2.68-5.99,5.99-5.99s5.99,2.68,5.99,5.99v55.25c0,3.31-2.68,5.99-5.99,5.99"/>
  <path class="cls-1" d="M346.81,312.66c-16.24-5.84-25.03,5.66-25.03,5.66l-.33-2.34c-7.04,4.98-11.65,13.18-11.65,22.44v33.77c0,3.31,2.68,5.99,5.99,5.99s5.99-2.68,5.99-5.99v-33.77c0-8.54,6.95-15.49,15.49-15.49s15.49,6.95,15.49,15.49v33.77c0,3.31,2.68,5.99,5.99,5.99s5.99-2.68,5.99-5.99v-33.77c0-11.79-7.47-21.88-17.93-25.76"/>
  <path class="cls-1" d="M315.79,344.47c-3.31,0-5.99-2.68-5.99-5.99v-21.48c0-3.31,2.68-5.99,5.99-5.99s5.99,2.68,5.99,5.99v21.48c0,3.31-2.68,5.99-5.99,5.99"/>
</svg>