<?xml version="1.0" encoding="UTF-8"?>
<svg id="_图层_1" data-name="图层 1" xmlns="http://www.w3.org/2000/svg" viewBox="0 0 570 570">
  <defs>
    <style>
      .cls-1 {
        fill: #3789e6;
      }
    </style>
  </defs>
  <path class="cls-1" d="M468.93,107.4h-76.43c-6.33,0-11.47,5.13-11.47,11.47s5.13,11.47,11.47,11.47h61.33l-36.44,130.97c-1.7,6.1,1.87,12.42,7.97,14.12,1.03.29,2.06.42,3.08.42,5.02,0,9.63-3.32,11.04-8.4l40.49-145.51c.96-3.45.25-7.16-1.92-10.01-2.17-2.85-5.55-4.53-9.13-4.53"/>
  <path class="cls-1" d="M380.35,253.08h-65.54l41.02-41.58c14.79-13.29,23.26-32.29,23.26-52.19,0-28.52-23.2-51.72-51.72-51.72s-51.72,23.2-51.72,51.72v1.72c0,6.33,5.13,11.47,11.47,11.47s11.47-5.13,11.47-11.47v-1.72c0-15.87,12.91-28.79,28.79-28.79s28.79,12.91,28.79,28.79c0,13.48-5.78,26.35-15.85,35.31-.19.17-.37.34-.54.52l-60.53,61.35c-3.25,3.29-4.2,8.21-2.42,12.48,1.78,4.27,5.96,7.04,10.58,7.04h92.96c6.33,0,11.47-5.13,11.47-11.47s-5.13-11.47-11.47-11.47"/>
  <path class="cls-1" d="M108.93,110.79c-4.48-4.48-11.74-4.48-16.22,0s-4.48,11.74,0,16.22l64.66,64.66-64.66,64.66c-4.48,4.48-4.48,11.74,0,16.22,2.24,2.24,5.17,3.36,8.11,3.36s5.87-1.12,8.11-3.36l72.77-72.77c2.15-2.15,3.36-5.07,3.36-8.11s-1.21-5.96-3.36-8.11l-72.77-72.77Z"/>
  <path class="cls-1" d="M243.35,110.79l-43.68,43.68c-4.48,4.48-4.48,11.74,0,16.22,2.24,2.24,5.17,3.36,8.11,3.36s5.87-1.12,8.11-3.36l43.68-43.68c4.48-4.48,4.48-11.74,0-16.22-4.48-4.48-11.74-4.48-16.22,0"/>
  <path class="cls-1" d="M215.27,212.03c-4.48-4.48-11.74-4.48-16.22,0-4.48,4.48-4.48,11.74,0,16.22l44.3,44.3c2.24,2.24,5.17,3.36,8.11,3.36s5.87-1.12,8.11-3.36c4.48-4.48,4.48-11.74,0-16.22l-44.3-44.3Z"/>
  <path class="cls-1" d="M253.57,462.6c-6.31,0-11.42-5.11-11.42-11.42v-111.91l-56.4,73.78c-2.16,2.83-5.52,4.49-9.07,4.49s-6.91-1.66-9.08-4.49l-56.4-73.78v111.91c0,6.31-5.11,11.42-11.42,11.42s-11.42-5.11-11.42-11.42v-145.67c0-4.9,3.12-9.25,7.76-10.82,4.64-1.57,9.76,0,12.74,3.88l67.82,88.72,67.82-88.72c2.97-3.89,8.1-5.45,12.74-3.88,4.64,1.57,7.76,5.92,7.76,10.82v145.67c0,6.31-5.11,11.42-11.42,11.42"/>
  <path class="cls-1" d="M298.63,462.6c-6.31,0-11.42-5.11-11.42-11.42v-105.3c0-6.31,5.11-11.42,11.42-11.42s11.42,5.11,11.42,11.42v105.3c0,6.31-5.11,11.42-11.42,11.42"/>
  <path class="cls-1" d="M311.64,306.6c0-7.19-5.83-13.01-13.01-13.01s-13.01,5.83-13.01,13.01,5.83,13.01,13.01,13.01,13.01-5.83,13.01-13.01"/>
  <path class="cls-1" d="M481.65,306.6c0-7.19-5.83-13.01-13.01-13.01s-13.01,5.83-13.01,13.01,5.83,13.01,13.01,13.01,13.01-5.83,13.01-13.01"/>
  <path class="cls-1" d="M468.63,462.6c-6.31,0-11.42-5.11-11.42-11.42v-105.3c0-6.31,5.11-11.42,11.42-11.42s11.42,5.11,11.42,11.42v105.3c0,6.31-5.11,11.42-11.42,11.42"/>
  <path class="cls-1" d="M402.82,337.71c-30.96-11.14-47.7,10.78-47.7,10.78l-.64-4.45c-13.42,9.49-22.21,25.12-22.21,42.77v64.36c0,6.31,5.11,11.42,11.42,11.42s11.42-5.11,11.42-11.42v-64.36c0-16.28,13.24-29.52,29.52-29.52s29.52,13.24,29.52,29.52v64.36c0,6.31,5.11,11.42,11.42,11.42s11.42-5.11,11.42-11.42v-64.36c0-22.48-14.24-41.69-34.18-49.1"/>
  <path class="cls-1" d="M343.69,398.34c-6.31,0-11.42-5.11-11.42-11.42v-40.94c0-6.31,5.11-11.42,11.42-11.42s11.42,5.11,11.42,11.42v40.94c0,6.31-5.11,11.42-11.42,11.42"/>
</svg>