<?xml version="1.0" encoding="UTF-8"?>
<svg id="_图层_1" data-name="图层 1" xmlns="http://www.w3.org/2000/svg" viewBox="0 0 1400.52 389.2">
  <defs>
    <style>
      .cls-1 {
        fill: #040000;
      }
    </style>
  </defs>
  <path class="cls-1" d="M898.8,278.6c-6.27,0-11.36-5.09-11.36-11.36v-111.33l-56.1,73.39c-2.15,2.81-5.49,4.46-9.03,4.46s-6.88-1.65-9.03-4.46l-56.1-73.39v111.33c0,6.27-5.09,11.36-11.36,11.36s-11.36-5.09-11.36-11.36V122.33c0-4.87,3.11-9.2,7.72-10.76,4.61-1.56,9.71,0,12.67,3.86l67.46,88.26,67.46-88.26c2.96-3.87,8.05-5.42,12.67-3.86,4.62,1.56,7.72,5.89,7.72,10.76v144.9c0,6.27-5.09,11.36-11.36,11.36"/>
  <path class="cls-1" d="M650.43,111h-76.02c-6.3,0-11.41,5.11-11.41,11.41s5.11,11.41,11.41,11.41h61.01l-36.25,130.28c-1.69,6.07,1.86,12.36,7.93,14.05,1.02.29,2.05.42,3.06.42,4.99,0,9.58-3.31,10.98-8.35l40.28-144.75c.96-3.44.25-7.12-1.91-9.96s-5.52-4.51-9.08-4.51"/>
  <path class="cls-1" d="M562.31,255.91h-65.2l40.8-41.36c14.71-13.22,23.14-32.12,23.14-51.92,0-28.37-23.08-51.45-51.45-51.45s-51.45,23.08-51.45,51.45v1.71c0,6.3,5.11,11.41,11.41,11.41s11.41-5.11,11.41-11.41v-1.71c0-15.79,12.85-28.64,28.64-28.64s28.64,12.85,28.64,28.64c0,13.41-5.75,26.21-15.77,35.12-.19.16-.37.34-.54.51l-60.21,61.03c-3.23,3.27-4.18,8.17-2.4,12.41,1.78,4.24,5.92,7.01,10.52,7.01h92.47c6.3,0,11.41-5.11,11.41-11.41s-5.11-11.41-11.41-11.41"/>
  <path class="cls-1" d="M292.32,114.37c-4.46-4.45-11.68-4.45-16.13,0s-4.45,11.68,0,16.13l64.32,64.32-64.32,64.32c-4.45,4.46-4.45,11.68,0,16.13,2.23,2.23,5.15,3.34,8.07,3.34s5.84-1.11,8.07-3.34l72.39-72.39c2.14-2.14,3.34-5.04,3.34-8.07s-1.2-5.93-3.34-8.07l-72.39-72.39Z"/>
  <path class="cls-1" d="M426.03,114.37l-43.45,43.45c-4.46,4.46-4.46,11.68,0,16.13,2.23,2.23,5.15,3.34,8.07,3.34s5.84-1.11,8.07-3.34l43.45-43.45c4.45-4.46,4.45-11.68,0-16.13-4.46-4.45-11.68-4.45-16.13,0"/>
  <path class="cls-1" d="M398.1,215.07c-4.46-4.45-11.68-4.45-16.13,0-4.45,4.45-4.45,11.68,0,16.13l44.07,44.07c2.23,2.23,5.15,3.34,8.07,3.34s5.84-1.11,8.07-3.34c4.46-4.46,4.46-11.68,0-16.13l-44.07-44.07Z"/>
  <path class="cls-1" d="M943.63,278.6c-6.27,0-11.36-5.09-11.36-11.36v-104.74c0-6.27,5.09-11.36,11.36-11.36s11.36,5.09,11.36,11.36v104.74c0,6.27-5.09,11.36-11.36,11.36"/>
  <path class="cls-1" d="M956.57,123.42c0-7.15-5.8-12.94-12.94-12.94s-12.94,5.8-12.94,12.94,5.8,12.94,12.94,12.94,12.94-5.8,12.94-12.94"/>
  <path class="cls-1" d="M1127.67,123.42c0-7.15-5.8-12.94-12.94-12.94s-12.94,5.8-12.94,12.94,5.8,12.94,12.94,12.94,12.94-5.8,12.94-12.94"/>
  <path class="cls-1" d="M1114.73,278.6c-6.27,0-11.36-5.09-11.36-11.36v-104.74c0-6.27,5.09-11.36,11.36-11.36s11.36,5.09,11.36,11.36v104.74c0,6.27-5.09,11.36-11.36,11.36"/>
  <path class="cls-1" d="M1047.27,154.37c-30.8-11.08-47.45,10.73-47.45,10.73l-.63-4.43c-13.35,9.44-22.09,24.98-22.09,42.54v64.02c0,6.28,5.09,11.36,11.36,11.36s11.36-5.09,11.36-11.36v-64.02c0-16.19,13.17-29.36,29.36-29.36s29.36,13.17,29.36,29.36v64.02c0,6.28,5.09,11.36,11.36,11.36s11.36-5.09,11.36-11.36v-64.02c0-22.36-14.17-41.47-34-48.84"/>
  <path class="cls-1" d="M988.45,214.68c-6.27,0-11.36-5.09-11.36-11.36v-40.72c0-6.28,5.09-11.36,11.36-11.36s11.36,5.09,11.36,11.36v40.72c0,6.27-5.09,11.36-11.36,11.36"/>
</svg>