<?xml version="1.0" encoding="UTF-8"?>
<svg id="_图层_1" data-name="图层 1" xmlns="http://www.w3.org/2000/svg" viewBox="0 0 2029.38 389.2">
  <defs>
    <style>
      .cls-1 {
        fill: #040000;
      }

      .cls-2 {
        fill: none;
        stroke: #000;
        stroke-miterlimit: 10;
        stroke-width: 3.13px;
      }
    </style>
  </defs>
  <line class="cls-2" x1="1103.54" y1="120.88" x2="1103.54" y2="260.42"/>
  <path d="M1356.35,115.34l-8.35,7.87v49.39l8.35,7.61h74.07l7.93-7.61v-49.16l-7.93-8.1h-74.07ZM1422.81,166.44h-59.26v-36.72h59.26v36.72Z"/>
  <polygon points="1557.68 163.59 1557.68 166.44 1525.34 166.44 1525.34 115.8 1510 115.8 1510 166.44 1477.66 166.44 1477.66 115.34 1462.11 115.34 1462.11 172.49 1470.57 180.21 1564.98 180.21 1573.02 172.83 1573.02 115.34 1557.68 115.34 1557.68 163.59"/>
  <path d="M1668.21,180.21h15.65v-57.32l-7.75-7.54h-71.42l-7.74,7.72v57.15h15.38v-16.65h55.89v16.65ZM1612.35,129.7h56.09v19.57h-56.09v-19.57Z"/>
  <polygon points="1779.63 159.25 1723.33 115.34 1707.84 115.34 1707.84 180.21 1723.33 180.21 1723.33 136.78 1779.63 180.21 1795.42 180.21 1795.42 115.34 1779.63 115.34 1779.63 159.25"/>
  <polygon points="1819.25 115.35 1813.32 121.83 1813.32 129.13 1853.8 129.13 1853.8 180.21 1869.59 180.21 1869.59 128.96 1909.51 128.96 1909.51 115.35 1819.25 115.35"/>
  <polygon points="1261.69 180.21 1280.86 180.21 1335.88 115.33 1310.07 115.33 1289.2 143.04 1259.84 107.56 1232.95 107.56 1279.47 155.96 1261.69 180.21"/>
  <path d="M1488.27,241.28l3.56,4.52c2.06-1.62,3.43-3.64,4.35-5.65h33.13v4.9h5.76v-30.2l-2.88-2.88h-37.05l-2.88,2.88v16.53c0,.07.21,6.58-3.99,9.9M1498.02,217.73h31.29v5.67h-31.29v-5.67ZM1498.02,231.2v-2.36h31.29v5.86h-31.54c.27-1.8.26-3.14.25-3.51"/>
  <polygon points="1492.36 268.52 1535.05 268.52 1535.05 262.76 1492.36 262.76 1492.36 255.86 1535.05 255.86 1535.05 250.1 1443.33 250.1 1443.33 255.86 1486.02 255.86 1486.02 262.76 1443.33 262.76 1443.33 268.52 1486.02 268.52 1486.02 275.43 1440.24 275.43 1440.24 281.19 1538.14 281.19 1538.14 275.43 1492.36 275.43 1492.36 268.52"/>
  <polygon points="1444.68 243.33 1451.59 243.33 1484.05 236.4 1484.05 229.92 1451.24 236.84 1451.24 220.92 1484.05 220.92 1484.05 214.59 1484.04 214.59 1484.04 214.57 1465 214.57 1465 210.87 1458.09 210.87 1458.09 214.57 1448.48 214.57 1448.47 214.59 1440.24 214.59 1440.24 220.92 1444.68 220.92 1444.68 243.33"/>
  <rect x="1255.44" y="211.91" width="14.35" height="6.33"/>
  <rect x="1277.94" y="211.99" width="75.31" height="6.33"/>
  <polygon points="1353.25 252.53 1353.25 246.2 1318.76 246.2 1318.76 238.97 1350.63 238.97 1350.63 232.64 1289.21 232.64 1289.37 232.03 1282.82 232.03 1280.07 242.78 1286.62 242.78 1287.59 238.97 1312.43 238.97 1312.43 246.2 1277.94 246.2 1277.94 252.53 1312.43 252.53 1312.43 261.11 1286.54 261.11 1286.54 255.96 1280.21 255.96 1280.21 264.27 1283.37 267.44 1347.82 267.44 1350.98 264.27 1350.98 255.96 1344.65 255.96 1344.65 261.11 1318.76 261.11 1318.76 252.53 1353.25 252.53"/>
  <path d="M1270.28,264.62v-32.47l-3.17-3.17h-11.67v6.34h8.5v28.78s0,.15,0,.39v-.03c-.55,1.51-3,7.37-9.49,11.31l3.29,5.41c3.9-2.37,6.65-5.3,8.56-7.96l.13-.17c2.64,4.3,7.7,8.11,16.73,8.11h70.98v-6.33h-70.98c-12.38,0-12.88-9.2-12.89-10.22"/>
  <polygon points="1297.11 230.03 1294.69 220.93 1288.14 220.93 1290.56 230.03 1297.11 230.03"/>
  <polygon points="1317.47 220.93 1310.92 220.93 1313.34 230.04 1319.89 230.04 1317.47 220.93"/>
  <polygon points="1336.39 220.93 1333.4 230.04 1340.07 230.04 1343.05 220.93 1336.39 220.93"/>
  <polygon points="1622.78 218.96 1640 218.96 1640 230.48 1622.78 230.48 1622.78 237.39 1640 237.39 1640 281.17 1646.91 281.17 1646.91 237.39 1664.12 237.39 1664.12 230.48 1646.91 230.48 1646.91 218.96 1664.12 218.96 1664.12 212.05 1622.78 212.05 1622.78 218.96"/>
  <path d="M1627.08,260.02c-.04,3.24-1.04,12.51-5.07,16.4l4.79,4.98c6.84-6.58,7.18-19.81,7.19-21.33v-18.2h-6.91v18.16Z"/>
  <rect x="1653.62" y="241.86" width="6.91" height="38.9"/>
  <rect x="1669.91" y="217.42" width="30.84" height="6.91"/>
  <rect x="1669.91" y="239.64" width="30.84" height="6.91"/>
  <polygon points="1713.87 212.05 1706.97 212.05 1706.97 259.36 1667.32 263.92 1667.32 270.88 1706.97 266.32 1706.97 281.17 1713.87 281.17 1713.87 265.52 1721.78 264.61 1721.78 257.65 1713.87 258.56 1713.87 212.05"/>
  <path d="M1894.98,244.37l-2.98-5.14h-24.25v-14.47h29.56v-6.91h-29.56v-7.04h-6.91v7.04h-27.37v6.91h27.37v14.47h-22.91l-2.98,5.14c.43.75,7.1,12.08,22.92,22.4-7.08,3.39-15.51,6.3-25.42,8.11l1.23,6.76c12.58-2.29,22.92-6.21,31.28-10.67,8.37,4.46,18.7,8.38,31.29,10.67l1.23-6.76c-9.91-1.81-18.34-4.72-25.42-8.11,15.83-10.32,22.5-21.65,22.93-22.4M1844.71,246.1h40.5c-3.71,4.41-10.26,10.97-20.25,16.89-9.99-5.93-16.54-12.48-20.25-16.89"/>
  <polygon points="1818.63 210.81 1811.72 210.81 1811.72 217.77 1798.51 217.77 1798.51 224.68 1811.72 224.68 1811.72 246.94 1798.51 248.82 1798.51 255.8 1811.72 253.92 1811.72 274.26 1801.3 274.26 1801.3 281.16 1815.17 281.16 1818.63 277.71 1818.63 252.94 1828.56 251.53 1828.56 244.55 1818.63 245.96 1818.63 224.68 1828.56 224.68 1828.56 217.77 1818.63 217.77 1818.63 210.81"/>
  <path class="cls-1" d="M734.78,276.35c-6.16,0-11.16-5-11.16-11.16v-109.36l-55.11,72.1c-2.11,2.76-5.39,4.38-8.87,4.38s-6.76-1.62-8.87-4.38l-55.11-72.1v109.36c0,6.16-5,11.16-11.16,11.16s-11.16-5-11.16-11.16V122.85c0-4.79,3.05-9.04,7.59-10.57,4.53-1.53,9.54,0,12.45,3.79l66.27,86.7,66.27-86.7c2.9-3.8,7.92-5.33,12.45-3.79,4.53,1.54,7.59,5.79,7.59,10.57v142.34c0,6.16-5,11.16-11.16,11.16"/>
  <path class="cls-1" d="M490.79,111.71h-74.68c-6.19,0-11.2,5.02-11.2,11.2s5.02,11.21,11.2,11.21h59.94l-35.61,127.98c-1.66,5.96,1.83,12.14,7.79,13.8,1.01.28,2.02.41,3.01.41,4.9,0,9.41-3.25,10.79-8.2l39.57-142.2c.94-3.37.25-6.99-1.87-9.78-2.12-2.79-5.42-4.43-8.92-4.43"/>
  <path class="cls-1" d="M404.23,254.07h-64.05l40.08-40.63c14.45-12.99,22.73-31.56,22.73-51,0-27.87-22.67-50.54-50.54-50.54s-50.55,22.67-50.55,50.54v1.68c0,6.19,5.02,11.2,11.21,11.2s11.2-5.02,11.2-11.2v-1.68c0-15.51,12.62-28.13,28.13-28.13s28.13,12.62,28.13,28.13c0,13.18-5.65,25.75-15.49,34.51-.18.16-.36.33-.53.51l-59.15,59.95c-3.17,3.22-4.1,8.02-2.36,12.2,1.74,4.17,5.82,6.88,10.34,6.88h90.84c6.19,0,11.2-5.02,11.2-11.21s-5.02-11.2-11.2-11.2"/>
  <path class="cls-1" d="M138.99,115.02c-4.38-4.38-11.47-4.38-15.85,0-4.38,4.38-4.38,11.47,0,15.85l63.19,63.19-63.19,63.18c-4.38,4.38-4.38,11.47,0,15.85,2.19,2.19,5.06,3.29,7.92,3.29s5.73-1.09,7.92-3.29l71.11-71.11c2.1-2.1,3.28-4.95,3.28-7.92s-1.18-5.83-3.28-7.92l-71.11-71.11Z"/>
  <path class="cls-1" d="M270.35,115.02l-42.68,42.68c-4.38,4.38-4.38,11.47,0,15.85,2.19,2.19,5.06,3.28,7.92,3.28s5.73-1.09,7.92-3.28l42.68-42.68c4.38-4.38,4.38-11.47,0-15.85-4.38-4.38-11.47-4.38-15.85,0"/>
  <path class="cls-1" d="M242.91,213.95c-4.38-4.38-11.47-4.38-15.85,0-4.38,4.38-4.38,11.47,0,15.85l43.29,43.29c2.19,2.19,5.06,3.28,7.92,3.28s5.73-1.09,7.92-3.28c4.38-4.38,4.38-11.47,0-15.85l-43.29-43.29Z"/>
  <path class="cls-1" d="M778.82,276.35c-6.16,0-11.16-5-11.16-11.16v-102.9c0-6.16,5-11.16,11.16-11.16s11.16,5,11.16,11.16v102.9c0,6.16-5,11.16-11.16,11.16"/>
  <path class="cls-1" d="M791.54,123.91c0-7.02-5.69-12.72-12.72-12.72s-12.72,5.7-12.72,12.72,5.7,12.72,12.72,12.72,12.72-5.7,12.72-12.72"/>
  <path class="cls-1" d="M959.62,123.91c0-7.02-5.69-12.72-12.72-12.72s-12.71,5.7-12.71,12.72,5.69,12.72,12.71,12.72,12.72-5.7,12.72-12.72"/>
  <path class="cls-1" d="M946.9,276.35c-6.16,0-11.16-5-11.16-11.16v-102.9c0-6.16,5-11.16,11.16-11.16s11.16,5,11.16,11.16v102.9c0,6.16-5,11.16-11.16,11.16"/>
  <path class="cls-1" d="M880.63,154.32c-30.25-10.88-46.62,10.54-46.62,10.54l-.62-4.35c-13.11,9.27-21.7,24.55-21.7,41.79v62.89c0,6.17,5,11.16,11.16,11.16s11.16-4.99,11.16-11.16v-62.89c0-15.91,12.94-28.85,28.85-28.85s28.85,12.94,28.85,28.85v62.89c0,6.17,5,11.16,11.16,11.16s11.16-4.99,11.16-11.16v-62.89c0-21.97-13.92-40.74-33.4-47.98"/>
  <path class="cls-1" d="M822.85,213.57c-6.16,0-11.16-5-11.16-11.16v-40c0-6.16,5-11.16,11.16-11.16s11.16,5,11.16,11.16v40c0,6.16-5,11.16-11.16,11.16"/>
</svg>